# xmcd CD database file
#
# Track frame offsets:
#	150
#	10843
#	35063
#	65055
#	96250
#	125863
#	151855
#	180608
#	214285
#	245603
#	262295
#
# Disc length: 3772 seconds
#
# Revision: 1
# Processed by: cddbd v1.5.1PL2 Copyright (c) Steve Scherf et al.
# Submitted via: CDex 1.51
#
DISCID=a80eba0b
DTITLE=米倉利紀 - cool Jamz
DYEAR=1995
DGENRE=JPop
TTITLE0=Sounds of New York
TTITLE1=Emergency
TTITLE2=きっとできない じっとしない
TTITLE3=たとえば堕ちてゆくなら
TTITLE4=Fraghile
TTITLE5=Sing Out!
TTITLE6=tears of joy
TTITLE7=slow
TTITLE8=forever and ever
TTITLE9=Not Shady...
TTITLE10=You're My Everything
EXTD=YEAR: 1995
EXTT0=
EXTT1=
EXTT2=
EXTT3=
EXTT4=
EXTT5=
EXTT6=
EXTT7=
EXTT8=
EXTT9=
EXTT10=
PLAYORDER=
